<?xml version="1.0" encoding="UTF-8" standalone="no"?><svg xmlns:dc="http://purl.org/dc/elements/1.1/" xmlns:cc="http://creativecommons.org/ns#" xmlns:rdf="http://www.w3.org/1999/02/22-rdf-syntax-ns#" xmlns:svg="http://www.w3.org/2000/svg" xmlns="http://www.w3.org/2000/svg" width="25mm" height="25mm" viewBox="0 0 250 250" version="1.1" id="UltraToot-2D"><defs id="defs2" /><g id="layer1" transform="translate(0,-47)"><path style="fill:#f800ff;fill-opacity:1;fill-rule:evenodd;stroke:#030303;stroke-width:2;stroke-linecap:butt;stroke-linejoin:miter;stroke-miterlimit:4;stroke-dasharray:none;stroke-opacity:1" d="m 208.64285,39.22024 c 0,0 9.07143,11.339286 9.44941,25.702381 0.37798,14.363094 -3.40179,39.687499 -17.00893,57.452379 -13.60714,17.76488 -16.25297,21.16667 -32.88393,30.99405 -16.63095,9.82738 -19.27678,10.20535 -19.27678,10.20535 l 10.20535,9.07143 c 0,0 42.33334,15.49703 46.49108,17.38691 4.15773,1.88988 20.41071,7.18155 25.70237,10.58333 5.29167,3.40179 13.60715,11.71726 13.60715,11.71726 0,0 -13.60715,-9.4494 -31.75,4.91369 -18.14286,14.3631 -8.69345,25.32441 -8.69345,25.32441 0,0 -8.30761,-4.94056 -13.40472,-8.89588 -4.29532,-5.29166 -9.76254,-10.19749 -12.03039,-10.19749 -2.26786,0 -8.20477,-2.45127 -8.20477,-2.45127 l -6.04762,79.37499 -62.74405,1.51191 c 0,0 3.02381,-6.80357 2.26786,-9.07143 -0.75596,-2.26786 -5.29167,-4.53571 -5.29167,-4.53571 l -3.02381,9.82738 -53.672617,1.88988 -3.779761,-5.66964 -0.755954,-41.57738 c 0,0 -2.645833,-2.64584 -2.267858,-8.31548 0.377979,-5.66964 -0.755951,-6.4256 -0.755951,-6.4256 0,0 -20.78869,0 -25.3244043,-2.64583 -4.5357142,-2.64583 -18.8988094,-7.55952 -18.8988094,-7.55952 0,0 4.1577381,-24.19048 9.07142852,-30.61607 4.91369038,-6.4256 23.81250018,-21.16667 23.81250018,-21.16667 0,0 4.535715,-16.25298 6.80357,-21.92262 2.267857,-5.66964 6.425596,-12.85119 6.425596,-12.85119 l -3.779763,-5.66964 c 0,0 -19.276784,-14.3631 -25.3244032,-33.26191 C 1.5119047,83.443454 -0.75595238,79.663693 -4.1577381,61.898811 -7.5595238,44.13393 9.8273808,27.502978 9.8273808,27.502978 Z" id="skin"/><path style="fill:#000000;fill-opacity:0.99607843;fill-rule:evenodd;stroke:#000000;stroke-width:0.26458332px;stroke-linecap:butt;stroke-linejoin:miter;stroke-opacity:1" d="m 131.53571,47.535716 c 0,0 21.92262,13.985119 27.21429,26.458332 5.29166,12.473215 14.74107,37.419642 10.58333,51.404762 -4.15774,13.98512 -14.36309,30.23809 -14.36309,30.23809 0,0 7.73479,-33.61738 6.42559,-49.51487 C 158.75,73.994048 142.875,57.741073 123.97619,49.803573 105.07738,41.866073 104.6994,30.148812 104.6994,30.148812 Z" id="path880" /><path style="fill:#000000;fill-opacity:0.99607843;fill-rule:evenodd;stroke:#000000;stroke-width:0.26458332px;stroke-linecap:butt;stroke-linejoin:miter;stroke-opacity:1" d="m 181.05059,220.27083 c 0,0 3.40179,-8.69345 7.9375,-11.71726 4.53572,-3.02381 13.22917,-4.15774 13.22917,-4.15774 0,0 -9.4494,5.66965 -12.47321,8.69346 -3.02381,3.0238 -8.69346,7.18154 -8.69346,7.18154 z" id="path904"/><path style="fill:#000000;fill-opacity:1;fill-rule:evenodd;stroke:#000000;stroke-width:0.26458332px;stroke-linecap:butt;stroke-linejoin:miter;stroke-opacity:1" d="m 23.434524,176.04762 c 0,0 -9.827381,33.2619 -9.827381,38.55357 v 12.47321 c 0,0 16.252975,4.53572 27.592262,3.77977 11.339285,-0.75596 29.860118,-5.29167 29.860118,-5.29167 0,0 8.315476,-39.30952 10.583333,-46.49107 2.267858,-7.18155 11.717261,-29.48214 14.363094,-30.61607 2.645834,-1.13393 -1.133927,10.20535 -1.133927,10.20535 0,0 -13.985118,75.97322 -13.985118,79.75298 0,3.77976 -6.047621,25.3244 3.401785,31.37202 9.449403,6.04762 20.78869,13.98512 35.52976,6.04762 14.74107,-7.9375 27.97024,-16.63095 35.52976,-29.48214 7.55953,-12.85119 15.49703,-25.3244 15.49703,-25.3244 l -6.04762,79.37499 -62.74405,1.51191 -3.02381,-13.60714 -3.02381,9.82738 L 50.270833,297 c 0,0 -7.181547,-38.55357 -12.473215,-44.22321 -5.291668,-5.66964 -3.023809,-14.74108 -3.023809,-14.74108 0,0 -11.339285,1e-5 -16.252976,1e-5 -4.91369,0 -27.9702377,-10.20536 -27.9702377,-10.20536 0,0 -4.3286033,-16.52943 6.9981224,-28.19165 C 5.486407,191.4659 23.434524,176.04762 23.434524,176.04762 Z" id="path950" /><ellipse style="fill:#000000;fill-opacity:1;stroke:#000000;stroke-width:2;stroke-miterlimit:4;stroke-dasharray:none;stroke-opacity:1;paint-order:stroke markers fill" id="path972" cx="107.53423" cy="107.06697" rx="4.7247024" ry="6.2366071" /><ellipse ry="6.2366071" rx="4.7247024" cy="104.79911" cx="42.522327" id="ellipse974" style="fill:#000000;fill-opacity:1;stroke:#000000;stroke-width:2;stroke-miterlimit:4;stroke-dasharray:none;stroke-opacity:1;paint-order:stroke markers fill" /><path style="fill:#000000;fill-opacity:1;fill-rule:evenodd;stroke:#000000;stroke-width:0.26458332px;stroke-linecap:butt;stroke-linejoin:miter;stroke-opacity:1" d="m 104.60491,83.537947 c 1.6064,-1.039434 6.99256,-0.944941 6.99256,-0.944941 0,0 3.68527,-0.188986 5.10268,3.496281 1.41741,3.685268 0.66146,6.142112 2.74032,6.236608 2.07888,0.09449 3.68527,-0.850448 3.40179,-2.456847 -0.28348,-1.606399 -2.07887,-7.748511 -4.44122,-9.35491 -2.36235,-1.606399 -6.64754,-3.562283 -10.86682,-2.834822 -5.48065,0.944941 -7.46502,2.929315 -8.031989,3.968749 -0.566965,1.039437 -1.41741,2.362354 -0.472471,3.401788 0.94494,1.039434 3.59077,0.755952 4.06325,0.283483 0.47246,-0.472472 1.5119,-1.795389 1.5119,-1.795389 z" id="path976" /><path style="fill:#000000;fill-opacity:1;fill-rule:evenodd;stroke:#000000;stroke-width:0.26458332px;stroke-linecap:butt;stroke-linejoin:miter;stroke-opacity:1" d="m 42.144344,86.750745 c 0,0 2.55134,-5.291666 3.874256,-5.858631 1.322917,-0.566965 3.496281,-1.228423 3.779764,-0.377976 0.283479,0.850448 0.661458,2.834823 1.700892,2.55134 1.039434,-0.283482 2.551337,-0.944941 2.83482,-1.889882 0.283482,-0.94494 0.283482,-5.480655 -1.511903,-5.953125 -1.795389,-0.472469 -5.480656,-1.700892 -7.748514,0 -2.267857,1.700893 -6.709076,6.709077 -6.898065,8.409969 -0.188987,1.700896 -0.472469,3.401788 0.850447,3.685271 1.322917,0.283479 3.118303,-0.566966 3.118303,-0.566966 z" id="path978" /><ellipse style="fill:#ffe800;fill-opacity:1;stroke:#000000;stroke-width:2.15044212;stroke-miterlimit:4;stroke-dasharray:none;stroke-opacity:1;paint-order:stroke markers fill" id="hand-pad" cx="309.67404" cy="-98.294289" rx="15.114422" ry="24.175716" transform="matrix(0.44953014,0.89326516,-0.87050699,0.49215606,0,0)" /></g></svg> 
